<?xml version="1.0" encoding="iso-8859-1"?>
<!-- Generator: Adobe Illustrator 19.0.0, SVG Export Plug-In . SVG Version: 6.00 Build 0)  -->
<svg version="1.1" id="Capa_1" xmlns="http://www.w3.org/2000/svg" xmlns:xlink="http://www.w3.org/1999/xlink" x="0px" y="0px"
	 viewBox="0 0 512 512" style="enable-background:new 0 0 512 512;" xml:space="preserve">
<path style="fill:#E4EAF8;" d="M504.681,108.08c-4.726,0-491.699,0-496.585,0c-4.472,0-8.096,3.625-8.096,8.096v269.17
	l79.586,79.586c7.021,0,416.763,0,426.466,0c3.285,0,5.948-2.663,5.948-5.947V115.399C512,111.357,508.723,108.08,504.681,108.08z"
	/>
<path style="fill:#D8DCE5;" d="M20.605,114.116c0-2.402,1.052-4.553,2.713-6.036c-9.321,0-14.729,0-15.222,0
	c-4.472,0-8.096,3.625-8.096,8.096v269.17l20.605,20.605V114.116z"/>
<path style="fill:#00C3FF;" d="M370.919,503.243h90.556c2.297,0,4.159-1.862,4.159-4.159V12.917c0-2.297-1.862-4.159-4.159-4.159
	h-90.556c-2.297,0-4.159,1.862-4.159,4.159v486.167C366.759,501.38,368.622,503.243,370.919,503.243z"/>
<path style="fill:#00AAF0;" d="M397.775,8.757h-25.513c-3.039,0-5.503,2.464-5.502,5.502v483.48c0,3.039,2.464,5.502,5.503,5.503
	h25.513L397.775,8.757z"/>
<path style="fill:#039ADD;" d="M392.295,503.243c-3.039,0-5.503-2.464-5.503-5.503V14.26c0-3.039,2.464-5.503,5.503-5.502h5.481l0,0
	h-26.873c-2.288,0-4.143,1.855-4.143,4.143v486.146c0,2.318,1.879,4.196,4.196,4.196h26.819l0,0H392.295z"/>
<path style="fill:#D8DCE5;" d="M73.205,385.346H0l79.586,79.586v-73.205C79.586,388.203,76.729,385.346,73.205,385.346z"/>
<polygon style="fill:#C3C8D1;" points="20.605,385.346 0,385.346 79.586,464.932 79.586,444.327 "/>
<path style="fill:#F962B1;" d="M290.161,230.198l-83.638-48.288c-2.133-1.231-4.761-1.231-6.894,0l-83.638,48.288
	c-2.133,1.232-3.448,3.508-3.448,5.971v96.576c0,2.463,1.315,4.74,3.448,5.971l83.638,48.288c2.133,1.232,4.761,1.232,6.894,0
	l83.638-48.288c2.133-1.231,3.448-3.508,3.448-5.971v-96.576C293.609,233.706,292.295,231.43,290.161,230.198z"/>
<path style="fill:#FF9CD0;" d="M203.077,284.457l89.609-51.735c-0.596-1.031-1.457-1.908-2.524-2.524l-83.638-48.288
	c-2.133-1.231-4.761-1.231-6.894,0l-83.638,48.288c-1.067,0.616-1.928,1.493-2.524,2.524L203.077,284.457z"/>
<path style="fill:#FF80BD;" d="M112.545,236.169v96.576c0,2.463,1.315,4.74,3.448,5.971l83.638,48.288
	c1.067,0.616,2.257,0.924,3.447,0.924V284.457l-89.609-51.735C112.873,233.753,112.545,234.938,112.545,236.169z"/>
<g>
	<path style="fill:#5BDDFC;" d="M434.445,374.76c0,4.267,3.459,7.727,7.727,7.727h23.462v-15.454h-23.462
		C437.904,367.033,434.445,370.492,434.445,374.76z"/>
	<path style="fill:#5BDDFC;" d="M434.445,280.44c0,4.267,3.459,7.727,7.727,7.727h23.462v-15.454h-23.462
		C437.904,272.713,434.445,276.172,434.445,280.44z"/>
	<path style="fill:#5BDDFC;" d="M434.445,327.6c0,4.267,3.459,7.727,7.727,7.727h23.462v-15.454h-23.462
		C437.904,319.873,434.445,323.332,434.445,327.6z"/>
	<path style="fill:#5BDDFC;" d="M434.445,421.92c0,4.267,3.459,7.727,7.727,7.727h23.462v-15.454h-23.462
		C437.904,414.193,434.445,417.653,434.445,421.92z"/>
	<path style="fill:#5BDDFC;" d="M465.634,461.353h-23.462c-4.267,0-7.727,3.459-7.727,7.727s3.459,7.727,7.727,7.727h23.462V461.353
		z"/>
	<path style="fill:#5BDDFC;" d="M434.445,138.959c0,4.267,3.459,7.727,7.727,7.727h23.462v-15.454h-23.462
		C437.904,131.233,434.445,134.692,434.445,138.959z"/>
	<path style="fill:#5BDDFC;" d="M434.445,233.28c0,4.267,3.459,7.727,7.727,7.727h23.462v-15.454h-23.462
		C437.904,225.553,434.445,229.012,434.445,233.28z"/>
	<path style="fill:#5BDDFC;" d="M434.445,44.64c0,4.267,3.459,7.727,7.727,7.727h23.462V36.913h-23.462
		C437.904,36.913,434.445,40.372,434.445,44.64z"/>
	<path style="fill:#5BDDFC;" d="M434.445,91.8c0,4.267,3.459,7.727,7.727,7.727h23.462V84.073h-23.462
		C437.904,84.073,434.445,87.532,434.445,91.8z"/>
	<path style="fill:#5BDDFC;" d="M434.445,186.119c0,4.267,3.459,7.727,7.727,7.727h23.462v-15.454h-23.462
		C437.904,178.393,434.445,181.852,434.445,186.119z"/>
</g>
<path style="fill:#FF80BD;" d="M136.658,242.15l85.126-49.148c0.774-0.447,1.613-0.727,2.469-0.855l-17.73-10.237
	c-2.133-1.231-4.761-1.231-6.894,0l-83.638,48.288c-1.066,0.616-1.928,1.493-2.524,2.524l20.665,11.931
	C134.737,243.633,135.596,242.763,136.658,242.15z"/>
<path style="fill:#F962B1;" d="M133.149,346.522v-98.295c0-1.281,0.353-2.509,0.984-3.574l-20.665-11.931
	c-0.595,1.031-0.924,2.216-0.924,3.447v96.576c0,2.463,1.315,4.74,3.448,5.971l17.575,10.147
	C133.303,348.121,133.149,347.334,133.149,346.522z"/>
<g>
</g>
<g>
</g>
<g>
</g>
<g>
</g>
<g>
</g>
<g>
</g>
<g>
</g>
<g>
</g>
<g>
</g>
<g>
</g>
<g>
</g>
<g>
</g>
<g>
</g>
<g>
</g>
<g>
</g>
</svg>
